<svg version="1.1" id="Layer_1" xmlns="http://www.w3.org/2000/svg" xmlns:xlink="http://www.w3.org/1999/xlink" x="0px" y="0px"
	 width="100%" viewBox="0 0 1200 1200" enable-background="new 0 0 1200 1200" xml:space="preserve">
<path fill="#FFFFFE" opacity="1.000000" stroke="none" 
	d="
M571.000000,0.999999 
	C590.687561,1.000000 610.375122,1.000000 630.752319,1.365965 
	C662.567566,3.447564 693.449402,7.115214 723.913452,13.809106 
	C880.717468,48.263805 1005.420288,131.218475 1096.646484,263.213074 
	C1157.333130,351.020294 1190.883301,448.944336 1199.209839,555.432434 
	C1199.642700,560.967773 1200.395996,566.478027 1201.000000,572.000000 
	C1201.000000,591.354248 1201.000000,610.708435 1200.644775,630.768005 
	C1198.367676,665.935303 1193.977539,700.064453 1186.081543,733.685608 
	C1152.773193,875.513000 1078.610962,991.255432 962.711731,1079.458008 
	C869.240356,1150.592529 763.249817,1189.995728 646.099731,1199.237183 
	C640.388977,1199.687622 634.699402,1200.406372 629.000000,1201.000000 
	C609.645752,1201.000000 590.291565,1201.000000 570.250610,1200.634277 
	C540.288208,1198.485352 511.231598,1195.030396 482.476318,1189.135132 
	C372.769318,1166.643433 276.064362,1118.140381 194.222244,1041.766235 
	C79.537544,934.743713 16.016712,802.382263 2.749454,645.992188 
	C2.380515,641.643250 1.592568,637.329956 1.000003,633.000000 
	C1.000000,611.979126 1.000000,590.958191 1.374850,569.266968 
	C3.819927,536.328918 7.737558,504.306335 14.923745,472.750671 
	C48.062710,327.232513 123.870148,208.992844 243.299118,119.548004 
	C335.893646,50.200466 440.583801,11.821044 555.966614,2.751143 
	C560.992554,2.356064 565.989502,1.592117 571.000000,0.999999 
M626.964844,267.959473 
	C626.964844,267.959473 626.915466,267.898193 626.742859,267.181305 
	C631.629333,258.442719 636.515869,249.704117 641.463135,240.856735 
	C635.006653,238.455124 564.223450,239.046585 560.759460,241.454697 
	C561.684570,243.113235 562.659485,244.812683 563.589294,246.536423 
	C567.428406,253.653534 571.253845,260.777985 575.034912,267.960083 
	C575.034912,267.960083 574.983643,268.018860 574.270508,268.031555 
	C567.357910,264.060181 560.450684,260.079468 553.530884,256.120605 
	C548.531189,253.260208 547.852966,253.597824 547.847717,259.118103 
	C547.825378,282.557922 547.829712,305.997711 547.857727,329.437500 
	C547.859558,330.985840 548.139893,332.533844 548.405396,335.260315 
	C557.805298,330.101532 566.296753,325.441284 575.147766,321.141205 
	C575.273193,321.255432 575.398560,321.369690 575.327942,322.152405 
	C571.127197,329.520996 566.913818,336.882385 562.730530,344.260864 
	C560.133179,348.842072 560.602356,349.816376 565.639771,349.824738 
	C589.275208,349.863983 612.910828,349.869629 636.546204,349.818756 
	C641.298218,349.808533 641.811707,348.748718 639.435547,344.509338 
	C635.128845,336.825684 630.796631,329.156311 626.851501,321.139648 
	C626.971191,321.019867 627.090942,320.900055 627.901978,320.916687 
	C636.257019,325.596283 644.612061,330.275848 653.454529,335.228424 
	C653.891479,333.005585 654.127014,332.364929 654.127625,331.723999 
	C654.151855,307.118896 654.134644,282.513763 654.180298,257.908691 
	C654.187683,253.939148 652.530884,253.761078 649.558350,255.442398 
	C642.069153,259.678345 634.533569,263.832123 626.964844,267.959473 
M980.580383,349.903717 
	C1015.613403,369.020874 1032.563721,398.621948 1032.119141,438.435211 
	C1031.546631,489.699677 990.044800,530.838013 938.761047,530.840149 
	C901.598877,530.841736 864.431946,530.504150 827.276978,531.020325 
	C814.029480,531.204285 808.630981,523.643738 808.724854,512.682861 
	C809.118774,466.691742 808.891174,420.695312 808.891113,374.700836 
	C808.891113,372.914459 808.891113,371.128082 808.891113,369.192017 
	C765.674133,369.192017 722.977966,369.192017 680.371094,369.192017 
	C680.371094,463.094818 680.371094,556.645630 680.371094,650.612915 
	C758.174805,650.612915 835.608276,650.612915 913.761902,650.612915 
	C913.761902,755.703369 913.761902,860.378784 913.761902,965.133179 
	C960.427307,965.133179 1006.370117,965.133179 1052.872925,965.133179 
	C1052.872925,962.799255 1052.873047,960.673096 1052.873047,958.546936 
	C1052.873047,850.226624 1052.888550,741.906311 1052.802246,633.586060 
	C1052.799561,630.111511 1053.521851,628.023743 1056.758057,626.048645 
	C1113.791992,591.238831 1144.274170,540.464294 1146.854126,473.608765 
	C1147.791748,449.313995 1147.418701,424.945618 1146.889648,400.627228 
	C1146.633667,388.863983 1145.593628,376.945343 1143.271606,365.427032 
	C1126.053833,280.014771 1053.296875,220.554565 965.876221,220.192139 
	C921.715576,220.009064 877.553406,220.104034 833.392883,220.293915 
	C830.770386,220.305206 827.558838,221.643158 825.627380,223.443176 
	C792.353455,254.454468 759.233276,285.630890 726.090515,316.782990 
	C718.152039,324.244659 710.253723,331.749207 701.526794,340.000000 
	C704.452698,340.000000 706.224915,340.000000 707.997131,340.000000 
	C784.154663,340.000000 860.312134,340.026001 936.469666,339.978058 
	C951.689209,339.968475 966.243530,342.701721 980.580383,349.903717 
M184.684296,959.885620 
	C200.910294,964.112915 217.464691,965.541260 234.166107,965.554993 
	C277.491333,965.590759 320.816742,965.524170 364.141663,965.645813 
	C367.747589,965.655945 370.431610,964.694031 373.028259,962.246887 
	C413.162567,924.423889 453.359039,886.666748 493.529388,848.881958 
	C494.746155,847.737488 495.836487,846.458740 497.751007,844.432800 
	C494.592407,844.432800 492.791718,844.432861 490.991028,844.432861 
	C413.172180,844.432861 335.353302,844.486938 257.534546,844.402100 
	C231.582962,844.373840 209.221451,834.847351 191.331863,816.327271 
	C164.684219,788.740479 158.162308,755.483093 168.003204,719.213989 
	C178.495789,680.543030 213.528992,652.945312 253.480362,652.017944 
	C292.951569,651.101746 332.456879,651.643860 371.947296,651.575195 
	C384.874084,651.552734 389.963409,656.732605 389.964569,669.792175 
	C389.968689,716.450134 389.966187,763.108154 389.966187,809.766113 
	C389.966187,811.545227 389.966217,813.324341 389.966217,815.266296 
	C433.585205,815.266296 476.662720,815.266296 519.801147,815.266296 
	C519.801147,720.392151 519.801147,625.819214 519.801147,530.839966 
	C518.220520,530.839966 516.924194,530.839966 515.627869,530.839966 
	C420.478943,530.841736 325.329559,530.706665 230.181580,531.012268 
	C217.776245,531.052124 205.161453,532.306274 193.016205,534.807129 
	C151.649597,543.325073 117.127602,563.972839 90.159302,596.509460 
	C62.535355,629.837097 48.112949,668.254517 47.993484,711.757996 
	C47.931709,734.253601 47.799683,756.751831 48.072872,779.244324 
	C48.193935,789.211914 48.628696,799.251587 49.973549,809.115051 
	C55.568291,850.147888 73.726021,885.008362 103.125427,913.984985 
	C125.900345,936.432373 153.027832,951.411133 184.684296,959.885620 
M654.101501,718.500000 
	C654.101501,616.114502 654.101501,513.729065 654.101501,411.394531 
	C617.682434,411.394531 581.963013,411.394531 546.245178,411.394531 
	C546.245178,596.122559 546.245178,780.502930 546.245178,965.081177 
	C582.205383,965.081177 617.917786,965.081177 654.101562,965.081177 
	C654.101562,883.031433 654.101562,801.265747 654.101501,718.500000 
M389.969421,328.500000 
	C389.969421,386.104523 389.969421,443.709076 389.969421,501.435730 
	C433.619110,501.435730 476.685028,501.435730 519.693237,501.435730 
	C519.693237,404.892242 519.693237,308.674561 519.693237,212.418106 
	C476.363892,212.418106 433.430145,212.418106 389.969391,212.418106 
	C389.969391,250.938736 389.969391,289.219360 389.969421,328.500000 
M680.000000,890.500000 
	C680.000000,915.388184 680.000000,940.276428 680.000000,965.027954 
	C723.370056,965.027954 765.929260,965.027954 808.662659,965.027954 
	C808.662659,869.649597 808.662659,774.614197 808.662659,679.402466 
	C765.742981,679.402466 723.048889,679.402466 680.000000,679.402466 
	C680.000000,749.638611 680.000000,819.569336 680.000000,890.500000 
z"/>
<path fill="#426610" opacity="1.000000" stroke="none" 
	d="
M629.468628,1201.000000 
	C634.699402,1200.406372 640.388977,1199.687622 646.099731,1199.237183 
	C763.249817,1189.995728 869.240356,1150.592529 962.711731,1079.458008 
	C1078.610962,991.255432 1152.773193,875.513000 1186.081543,733.685608 
	C1193.977539,700.064453 1198.367676,665.935303 1200.644775,631.236694 
	C1201.000000,820.927185 1201.000000,1010.854431 1201.000000,1201.000000 
	C1010.645813,1201.000000 820.291565,1201.000000 629.468628,1201.000000 
z"/>
<path fill="#426610" opacity="1.000000" stroke="none" 
	d="
M570.531372,0.999999 
	C565.989502,1.592117 560.992554,2.356064 555.966614,2.751143 
	C440.583801,11.821044 335.893646,50.200466 243.299118,119.548004 
	C123.870148,208.992844 48.062710,327.232513 14.923745,472.750671 
	C7.737558,504.306335 3.819927,536.328918 1.374850,568.798340 
	C1.000000,379.739441 1.000000,190.478882 1.000000,1.000000 
	C190.687500,1.000000 380.375092,1.000000 570.531372,0.999999 
z"/>
<path fill="#426610" opacity="1.000000" stroke="none" 
	d="
M1201.000000,571.531372 
	C1200.395996,566.478027 1199.642700,560.967773 1199.209839,555.432434 
	C1190.883301,448.944336 1157.333130,351.020294 1096.646484,263.213074 
	C1005.420288,131.218475 880.717468,48.263805 723.913452,13.809106 
	C693.449402,7.115214 662.567566,3.447564 631.220947,1.365965 
	C820.927185,1.000000 1010.854309,1.000000 1201.000000,1.000000 
	C1201.000000,191.020844 1201.000000,381.041748 1201.000000,571.531372 
z"/>
<path fill="#426610" opacity="1.000000" stroke="none" 
	d="
M1.000003,633.468628 
	C1.592568,637.329956 2.380515,641.643250 2.749454,645.992188 
	C16.016712,802.382263 79.537544,934.743713 194.222244,1041.766235 
	C276.064362,1118.140381 372.769318,1166.643433 482.476318,1189.135132 
	C511.231598,1195.030396 540.288208,1198.485352 569.781921,1200.634277 
	C380.406311,1201.000000 190.812622,1201.000000 1.000000,1201.000000 
	C1.000000,1011.979187 1.000000,822.958252 1.000003,633.468628 
z"/>
<path fill="#72BE14" opacity="1.000000" stroke="none" 
	d="
M980.250610,349.728882 
	C966.243530,342.701721 951.689209,339.968475 936.469666,339.978058 
	C860.312134,340.026001 784.154663,340.000000 707.997131,340.000000 
	C706.224915,340.000000 704.452698,340.000000 701.526794,340.000000 
	C710.253723,331.749207 718.152039,324.244659 726.090515,316.782990 
	C759.233276,285.630890 792.353455,254.454468 825.627380,223.443176 
	C827.558838,221.643158 830.770386,220.305206 833.392883,220.293915 
	C877.553406,220.104034 921.715576,220.009064 965.876221,220.192139 
	C1053.296875,220.554565 1126.053833,280.014771 1143.271606,365.427032 
	C1145.593628,376.945343 1146.633667,388.863983 1146.889648,400.627228 
	C1147.418701,424.945618 1147.791748,449.313995 1146.854126,473.608765 
	C1144.274170,540.464294 1113.791992,591.238831 1056.758057,626.048645 
	C1053.521851,628.023743 1052.799561,630.111511 1052.802246,633.586060 
	C1052.888550,741.906311 1052.873047,850.226624 1052.873047,958.546936 
	C1052.873047,960.673096 1052.872925,962.799255 1052.872925,965.133179 
	C1006.370117,965.133179 960.427307,965.133179 913.761902,965.133179 
	C913.761902,860.378784 913.761902,755.703369 913.761902,650.612915 
	C835.608276,650.612915 758.174805,650.612915 680.371094,650.612915 
	C680.371094,556.645630 680.371094,463.094818 680.371094,369.192017 
	C722.977966,369.192017 765.674133,369.192017 808.891113,369.192017 
	C808.891113,371.128082 808.891113,372.914459 808.891113,374.700836 
	C808.891174,420.695312 809.118774,466.691742 808.724854,512.682861 
	C808.630981,523.643738 814.029480,531.204285 827.276978,531.020325 
	C864.431946,530.504150 901.598877,530.841736 938.761047,530.840149 
	C990.044800,530.838013 1031.546631,489.699677 1032.119141,438.435211 
	C1032.563721,398.621948 1015.613403,369.020874 980.250610,349.728882 
z"/>
<path fill="#72BE15" opacity="1.000000" stroke="none" 
	d="
M184.285645,959.784729 
	C153.027832,951.411133 125.900345,936.432373 103.125427,913.984985 
	C73.726021,885.008362 55.568291,850.147888 49.973549,809.115051 
	C48.628696,799.251587 48.193935,789.211914 48.072872,779.244324 
	C47.799683,756.751831 47.931709,734.253601 47.993484,711.757996 
	C48.112949,668.254517 62.535355,629.837097 90.159302,596.509460 
	C117.127602,563.972839 151.649597,543.325073 193.016205,534.807129 
	C205.161453,532.306274 217.776245,531.052124 230.181580,531.012268 
	C325.329559,530.706665 420.478943,530.841736 515.627869,530.839966 
	C516.924194,530.839966 518.220520,530.839966 519.801147,530.839966 
	C519.801147,625.819214 519.801147,720.392151 519.801147,815.266296 
	C476.662720,815.266296 433.585205,815.266296 389.966217,815.266296 
	C389.966217,813.324341 389.966187,811.545227 389.966187,809.766113 
	C389.966187,763.108154 389.968689,716.450134 389.964569,669.792175 
	C389.963409,656.732605 384.874084,651.552734 371.947296,651.575195 
	C332.456879,651.643860 292.951569,651.101746 253.480362,652.017944 
	C213.528992,652.945312 178.495789,680.543030 168.003204,719.213989 
	C158.162308,755.483093 164.684219,788.740479 191.331863,816.327271 
	C209.221451,834.847351 231.582962,844.373840 257.534546,844.402100 
	C335.353302,844.486938 413.172180,844.432861 490.991028,844.432861 
	C492.791718,844.432861 494.592407,844.432800 497.751007,844.432800 
	C495.836487,846.458740 494.746155,847.737488 493.529388,848.881958 
	C453.359039,886.666748 413.162567,924.423889 373.028259,962.246887 
	C370.431610,964.694031 367.747589,965.655945 364.141663,965.645813 
	C320.816742,965.524170 277.491333,965.590759 234.166107,965.554993 
	C217.464691,965.541260 200.910294,964.112915 184.285645,959.784729 
z"/>
<path fill="#72BE14" opacity="1.000000" stroke="none" 
	d="
M654.101562,719.000000 
	C654.101562,801.265747 654.101562,883.031433 654.101562,965.081177 
	C617.917786,965.081177 582.205383,965.081177 546.245178,965.081177 
	C546.245178,780.502930 546.245178,596.122559 546.245178,411.394531 
	C581.963013,411.394531 617.682434,411.394531 654.101501,411.394531 
	C654.101501,513.729065 654.101501,616.114502 654.101562,719.000000 
z"/>
<path fill="#72BE14" opacity="1.000000" stroke="none" 
	d="
M389.969421,328.000000 
	C389.969391,289.219360 389.969391,250.938736 389.969391,212.418106 
	C433.430145,212.418106 476.363892,212.418106 519.693237,212.418106 
	C519.693237,308.674561 519.693237,404.892242 519.693237,501.435730 
	C476.685028,501.435730 433.619110,501.435730 389.969421,501.435730 
	C389.969421,443.709076 389.969421,386.104523 389.969421,328.000000 
z"/>
<path fill="#72BE14" opacity="1.000000" stroke="none" 
	d="
M680.000000,890.000000 
	C680.000000,819.569336 680.000000,749.638611 680.000000,679.402466 
	C723.048889,679.402466 765.742981,679.402466 808.662659,679.402466 
	C808.662659,774.614197 808.662659,869.649597 808.662659,965.027954 
	C765.929260,965.027954 723.370056,965.027954 680.000000,965.027954 
	C680.000000,940.276428 680.000000,915.388184 680.000000,890.000000 
z"/>
<path fill="#73BE15" opacity="1.000000" stroke="none" 
	d="
M574.788269,320.781067 
	C566.296753,325.441284 557.805298,330.101532 548.405396,335.260315 
	C548.139893,332.533844 547.859558,330.985840 547.857727,329.437500 
	C547.829712,305.997711 547.825378,282.557922 547.847717,259.118103 
	C547.852966,253.597824 548.531189,253.260208 553.530884,256.120605 
	C560.450684,260.079468 567.357910,264.060181 574.680481,268.257324 
	C575.317749,268.411560 575.545105,268.339966 575.772400,268.268372 
	C575.543030,268.145477 575.313660,268.022614 575.084290,267.899750 
	C571.253845,260.777985 567.428406,253.653534 563.589294,246.536423 
	C562.659485,244.812683 561.684570,243.113235 560.759460,241.454697 
	C564.223450,239.046585 635.006653,238.455124 641.463135,240.856735 
	C636.515869,249.704117 631.629333,258.442719 626.595459,267.511444 
	C626.456116,268.118713 626.464172,268.395813 626.472229,268.672913 
	C626.653625,268.454895 626.835083,268.236847 627.016541,268.018799 
	C634.533569,263.832123 642.069153,259.678345 649.558350,255.442398 
	C652.530884,253.761078 654.187683,253.939148 654.180298,257.908691 
	C654.134644,282.513763 654.151855,307.118896 654.127625,331.723999 
	C654.127014,332.364929 653.891479,333.005585 653.454529,335.228424 
	C644.612061,330.275848 636.257019,325.596283 627.411987,320.616821 
	C626.664673,320.339691 626.407471,320.362396 626.150208,320.385071 
	C626.258484,320.750366 626.366821,321.115692 626.475098,321.480988 
	C630.796631,329.156311 635.128845,336.825684 639.435547,344.509338 
	C641.811707,348.748718 641.298218,349.808533 636.546204,349.818756 
	C612.910828,349.869629 589.275208,349.863983 565.639771,349.824738 
	C560.602356,349.816376 560.133179,348.842072 562.730530,344.260864 
	C566.913818,336.882385 571.127197,329.520996 575.597290,321.606140 
	C575.833374,320.811432 575.800049,320.563019 575.766785,320.314636 
	C575.440613,320.470093 575.114441,320.625580 574.788269,320.781067 
z"/>
<path fill="#FFFFFE" opacity="1.000000" stroke="none" 
	d="
M575.059570,267.929932 
	C575.313660,268.022614 575.543030,268.145477 575.772400,268.268372 
	C575.545105,268.339966 575.317749,268.411560 575.037048,268.250977 
	C574.983643,268.018860 575.034912,267.960083 575.059570,267.929932 
z"/>
<path fill="#FFFFFE" opacity="1.000000" stroke="none" 
	d="
M626.990723,267.989136 
	C626.835083,268.236847 626.653625,268.454895 626.472229,268.672913 
	C626.464172,268.395813 626.456116,268.118713 626.681763,267.869873 
	C626.915466,267.898193 626.964844,267.959473 626.990723,267.989136 
z"/>
<path fill="#FFFFFE" opacity="1.000000" stroke="none" 
	d="
M574.968018,320.961121 
	C575.114441,320.625580 575.440613,320.470093 575.766785,320.314636 
	C575.800049,320.563019 575.833374,320.811432 575.695312,321.271881 
	C575.398560,321.369690 575.273193,321.255432 574.968018,320.961121 
z"/>
<path fill="#FFFFFE" opacity="1.000000" stroke="none" 
	d="
M626.663330,321.310303 
	C626.366821,321.115692 626.258484,320.750366 626.150208,320.385071 
	C626.407471,320.362396 626.664673,320.339691 627.066284,320.548645 
	C627.090942,320.900055 626.971191,321.019867 626.663330,321.310303 
z"/>
</svg>